<?xml version="1.0" encoding="UTF-8"?>
<svg xmlns="http://www.w3.org/2000/svg" xmlns:xlink="http://www.w3.org/1999/xlink" viewBox="0 0 40 40" width="40px" height="40px">
<g id="surface1232788">
<path style=" stroke:none;fill-rule:nonzero;fill:rgb(100%,100%,100%);fill-opacity:1;" d="M 20 2.667969 C 10.441406 2.667969 2.667969 10.441406 2.667969 20 C 2.667969 29.558594 10.441406 37.332031 20 37.332031 C 29.558594 37.332031 37.332031 29.558594 37.332031 20 C 37.332031 10.441406 29.558594 2.667969 20 2.667969 Z M 15.554688 8 L 24.441406 8 C 28.609375 8 32 11.390625 32 15.554688 L 32 24.441406 C 32 28.609375 28.609375 32 24.445312 32 L 15.558594 32 C 11.390625 32 8 28.609375 8 24.445312 L 8 15.558594 C 8 11.390625 11.390625 8 15.554688 8 Z M 15.554688 10.667969 C 12.859375 10.667969 10.667969 12.859375 10.667969 15.558594 L 10.667969 24.445312 C 10.667969 27.140625 12.859375 29.332031 15.558594 29.332031 L 24.445312 29.332031 C 27.140625 29.332031 29.332031 27.140625 29.332031 24.441406 L 29.332031 15.554688 C 29.332031 12.859375 27.140625 10.667969 24.441406 10.667969 Z M 26.222656 12.886719 C 26.714844 12.886719 27.113281 13.285156 27.113281 13.777344 C 27.113281 14.265625 26.714844 14.667969 26.222656 14.667969 C 25.734375 14.667969 25.332031 14.265625 25.332031 13.777344 C 25.332031 13.285156 25.734375 12.886719 26.222656 12.886719 Z M 20 13.332031 C 23.675781 13.332031 26.667969 16.324219 26.667969 20 C 26.667969 23.675781 23.675781 26.667969 20 26.667969 C 16.324219 26.667969 13.332031 23.675781 13.332031 20 C 13.332031 16.324219 16.324219 13.332031 20 13.332031 Z M 20 16 C 17.789062 16 16 17.789062 16 20 C 16 22.210938 17.789062 24 20 24 C 22.210938 24 24 22.210938 24 20 C 24 17.789062 22.210938 16 20 16 Z M 20 16 "/>
</g>
</svg>
